<svg width="1200" height="1200" xmlns="http://www.w3.org/2000/svg" xmlns:xlink="http://www.w3.org/1999/xlink" version="1.1"><g transform="scale(12) translate(0, 0)">            <linearGradient id="SvgjsLinearGradient3945"><stop id="SvgjsStop3946" stop-color="#2d388a" offset="0"/><stop id="SvgjsStop3947" stop-color="#00aeef" offset="1"/></linearGradient>            <g fill="url(#SvgjsLinearGradient3945)"><linearGradient id="SvgjsLinearGradient3945"><stop id="SvgjsStop3946" stop-color="#2d388a" offset="0"/><stop id="SvgjsStop3947" stop-color="#00aeef" offset="1"/></linearGradient><path xmlns="http://www.w3.org/2000/svg" fill="url(#SvgjsLinearGradient3945)" d="M82.405,21.595L82.405,21.595l-3.999-4v0C70.625,9.813,59.874,5,48,5C24.252,5,5,24.252,5,48  c0,11.874,4.813,22.624,12.594,30.405l0,0l4,4l0,0C29.376,90.187,40.126,95,52,95c23.748,0,43-19.252,43-43  C95,40.126,90.188,29.376,82.405,21.595z M85,52c0,18.226-14.774,33-33,33c-8.028,0-15.385-2.869-21.106-7.635  C35.923,80.306,41.766,82,48,82c18.748,0,34-15.252,34-34c0-6.234-1.694-12.077-4.635-17.106C82.131,36.615,85,43.972,85,52z M81,48  c0,18.226-14.774,33-33,33c-8.094,0-15.503-2.919-21.245-7.755C21.919,67.504,19,60.095,19,52c0-18.225,14.775-33,33-33  c8.095,0,15.504,2.919,21.245,7.755C78.081,32.497,81,39.906,81,48z M48,6c9.818,0,18.853,3.396,26.013,9.062  C67.572,11.215,60.046,9,52,9C28.252,9,9,28.252,9,52c0,8.046,2.215,15.572,6.062,22.013C9.396,66.853,6,57.818,6,48  C6,24.841,24.841,6,48,6z"/></g>        </g></svg>